<mxfile host="65bd71144e" modified="2021-01-27T08:38:33.574Z" agent="5.0 (X11; Linux x86_64) AppleWebKit/537.36 (KHTML, like Gecko) code-oss/1.52.1 Chrome/83.0.4103.122 Electron/9.4.0 Safari/537.36" etag="wwhT4cDTWbEX1CpsbtcB" version="13.10.0" type="embed">
    <diagram id="srdtTAc39Rn3cq3yYVqH" name="Page-1">
        <mxGraphModel dx="1706" dy="1127" grid="1" gridSize="10" guides="1" tooltips="1" connect="1" arrows="1" fold="1" page="0" pageScale="1" pageWidth="1169" pageHeight="827" background="none" math="0" shadow="0">
            <root>
                <mxCell id="0"/>
                <mxCell id="1" parent="0"/>
                <mxCell id="14" style="edgeStyle=orthogonalEdgeStyle;orthogonalLoop=1;jettySize=auto;html=1;exitX=0;exitY=0.5;exitDx=0;exitDy=0;entryX=0.5;entryY=0;entryDx=0;entryDy=0;fontSize=12;fontColor=#000000;" parent="1" source="5" target="6" edge="1">
                    <mxGeometry relative="1" as="geometry"/>
                </mxCell>
                <mxCell id="63" value="Power On" style="edgeLabel;html=1;align=center;verticalAlign=middle;resizable=0;points=[];fontColor=#05F03C;" parent="14" vertex="1" connectable="0">
                    <mxGeometry x="-0.2584" y="1" relative="1" as="geometry">
                        <mxPoint as="offset"/>
                    </mxGeometry>
                </mxCell>
                <mxCell id="15" style="edgeStyle=orthogonalEdgeStyle;orthogonalLoop=1;jettySize=auto;html=1;exitX=1;exitY=0.5;exitDx=0;exitDy=0;entryX=0.5;entryY=0;entryDx=0;entryDy=0;fontSize=12;fontColor=#000000;" parent="1" source="5" target="7" edge="1">
                    <mxGeometry relative="1" as="geometry"/>
                </mxCell>
                <mxCell id="64" value="Attached" style="edgeLabel;html=1;align=center;verticalAlign=middle;resizable=0;points=[];fontColor=#FF9933;" parent="15" vertex="1" connectable="0">
                    <mxGeometry x="-0.528" y="-1" relative="1" as="geometry">
                        <mxPoint as="offset"/>
                    </mxGeometry>
                </mxCell>
                <mxCell id="5" value="State::Off" style="ellipse;whiteSpace=wrap;html=1;strokeColor=#006EAF;fillColor=#1ba1e2;fontSize=12;fontColor=#000000;fontStyle=1;rounded=1;" parent="1" vertex="1">
                    <mxGeometry x="500" y="110" width="120" height="80" as="geometry"/>
                </mxCell>
                <mxCell id="16" style="edgeStyle=orthogonalEdgeStyle;orthogonalLoop=1;jettySize=auto;html=1;exitX=1;exitY=0;exitDx=0;exitDy=0;fontSize=12;fontColor=#000000;entryX=0;entryY=1;entryDx=0;entryDy=0;" parent="1" source="6" target="5" edge="1">
                    <mxGeometry relative="1" as="geometry"/>
                </mxCell>
                <mxCell id="62" value="Power Off" style="edgeLabel;html=1;align=center;verticalAlign=middle;resizable=0;points=[];fontColor=#05F03C;" parent="16" vertex="1" connectable="0">
                    <mxGeometry x="-0.5157" y="-1" relative="1" as="geometry">
                        <mxPoint as="offset"/>
                    </mxGeometry>
                </mxCell>
                <mxCell id="18" style="edgeStyle=orthogonalEdgeStyle;orthogonalLoop=1;jettySize=auto;html=1;exitX=0;exitY=1;exitDx=0;exitDy=0;entryX=0;entryY=0;entryDx=0;entryDy=0;fontSize=12;fontColor=#000000;" parent="1" source="6" target="9" edge="1">
                    <mxGeometry relative="1" as="geometry"/>
                </mxCell>
                <mxCell id="50" value="Airplane Mode" style="edgeLabel;html=1;align=center;verticalAlign=middle;resizable=0;points=[];fontColor=#05F03C;" parent="18" vertex="1" connectable="0">
                    <mxGeometry x="0.1512" relative="1" as="geometry">
                        <mxPoint as="offset"/>
                    </mxGeometry>
                </mxCell>
                <mxCell id="24" style="edgeStyle=orthogonalEdgeStyle;orthogonalLoop=1;jettySize=auto;html=1;exitX=1;exitY=0.5;exitDx=0;exitDy=0;entryX=0;entryY=0.5;entryDx=0;entryDy=0;fontSize=12;fontColor=#000000;" parent="1" source="6" target="7" edge="1">
                    <mxGeometry relative="1" as="geometry"/>
                </mxCell>
                <mxCell id="60" value="Attached" style="edgeLabel;html=1;align=center;verticalAlign=middle;resizable=0;points=[];fontColor=#FF9933;" parent="24" vertex="1" connectable="0">
                    <mxGeometry x="0.0405" y="-1" relative="1" as="geometry">
                        <mxPoint x="14.31" y="-1" as="offset"/>
                    </mxGeometry>
                </mxCell>
                <mxCell id="26" style="edgeStyle=orthogonalEdgeStyle;orthogonalLoop=1;jettySize=auto;html=1;exitX=1;exitY=1;exitDx=0;exitDy=0;entryX=0;entryY=0;entryDx=0;entryDy=0;fontSize=12;fontColor=#000000;" parent="1" source="6" target="8" edge="1">
                    <mxGeometry relative="1" as="geometry">
                        <Array as="points">
                            <mxPoint x="297" y="440"/>
                            <mxPoint x="518" y="440"/>
                        </Array>
                    </mxGeometry>
                </mxCell>
                <mxCell id="57" value="Data Active" style="edgeLabel;html=1;align=center;verticalAlign=middle;resizable=0;points=[];fontColor=#FF9933;" parent="26" vertex="1" connectable="0">
                    <mxGeometry x="-0.2365" y="2" relative="1" as="geometry">
                        <mxPoint x="20.72" as="offset"/>
                    </mxGeometry>
                </mxCell>
                <mxCell id="6" value="State::On" style="ellipse;whiteSpace=wrap;html=1;strokeColor=#006EAF;fillColor=#1ba1e2;fontSize=12;fontColor=#000000;fontStyle=1;rounded=1;" parent="1" vertex="1">
                    <mxGeometry x="195" y="314" width="120" height="80" as="geometry"/>
                </mxCell>
                <mxCell id="20" style="edgeStyle=orthogonalEdgeStyle;orthogonalLoop=1;jettySize=auto;html=1;exitX=0;exitY=0;exitDx=0;exitDy=0;entryX=1;entryY=1;entryDx=0;entryDy=0;fontSize=12;fontColor=#000000;" parent="1" source="7" target="5" edge="1">
                    <mxGeometry relative="1" as="geometry"/>
                </mxCell>
                <mxCell id="61" value="Power Off" style="edgeLabel;html=1;align=center;verticalAlign=middle;resizable=0;points=[];fontColor=#05F03C;" parent="20" vertex="1" connectable="0">
                    <mxGeometry x="-0.1996" y="-1" relative="1" as="geometry">
                        <mxPoint as="offset"/>
                    </mxGeometry>
                </mxCell>
                <mxCell id="23" style="edgeStyle=orthogonalEdgeStyle;orthogonalLoop=1;jettySize=auto;html=1;exitX=0;exitY=1;exitDx=0;exitDy=0;entryX=1;entryY=1;entryDx=0;entryDy=0;fontSize=12;fontColor=#000000;" parent="1" source="7" target="6" edge="1">
                    <mxGeometry relative="1" as="geometry"/>
                </mxCell>
                <mxCell id="59" value="&lt;font color=&quot;#ff9933&quot;&gt;Detached&lt;/font&gt;" style="edgeLabel;html=1;align=center;verticalAlign=middle;resizable=0;points=[];" parent="23" vertex="1" connectable="0">
                    <mxGeometry x="-0.0716" y="1" relative="1" as="geometry">
                        <mxPoint x="4.09" as="offset"/>
                    </mxGeometry>
                </mxCell>
                <mxCell id="25" style="edgeStyle=orthogonalEdgeStyle;orthogonalLoop=1;jettySize=auto;html=1;exitX=1;exitY=1;exitDx=0;exitDy=0;entryX=1;entryY=0;entryDx=0;entryDy=0;fontSize=12;fontColor=#000000;" parent="1" source="7" target="9" edge="1">
                    <mxGeometry relative="1" as="geometry">
                        <Array as="points">
                            <mxPoint x="957" y="610"/>
                            <mxPoint x="297" y="610"/>
                        </Array>
                    </mxGeometry>
                </mxCell>
                <mxCell id="51" value="Airplane Mode" style="edgeLabel;html=1;align=center;verticalAlign=middle;resizable=0;points=[];fontColor=#05F03C;" parent="25" vertex="1" connectable="0">
                    <mxGeometry x="0.0282" y="1" relative="1" as="geometry">
                        <mxPoint x="36.18" as="offset"/>
                    </mxGeometry>
                </mxCell>
                <mxCell id="27" style="edgeStyle=orthogonalEdgeStyle;orthogonalLoop=1;jettySize=auto;html=1;exitX=0;exitY=1;exitDx=0;exitDy=0;entryX=1;entryY=0;entryDx=0;entryDy=0;fontSize=12;fontColor=#000000;" parent="1" source="7" target="8" edge="1">
                    <mxGeometry relative="1" as="geometry">
                        <Array as="points">
                            <mxPoint x="873" y="440"/>
                            <mxPoint x="602" y="440"/>
                        </Array>
                    </mxGeometry>
                </mxCell>
                <mxCell id="58" value="Data Active" style="edgeLabel;html=1;align=center;verticalAlign=middle;resizable=0;points=[];fontColor=#FF9933;" parent="27" vertex="1" connectable="0">
                    <mxGeometry x="0.1234" relative="1" as="geometry">
                        <mxPoint x="30.03" as="offset"/>
                    </mxGeometry>
                </mxCell>
                <mxCell id="7" value="&lt;font style=&quot;font-size: 12px&quot;&gt;State::Registered&lt;/font&gt;" style="ellipse;whiteSpace=wrap;html=1;strokeColor=#006EAF;fillColor=#1ba1e2;fontSize=14;fontColor=#000000;fontStyle=1;rounded=1;" parent="1" vertex="1">
                    <mxGeometry x="855" y="314" width="120" height="80" as="geometry"/>
                </mxCell>
                <mxCell id="30" style="edgeStyle=orthogonalEdgeStyle;orthogonalLoop=1;jettySize=auto;html=1;entryX=0.5;entryY=1;entryDx=0;entryDy=0;fontSize=12;fontColor=#000000;" parent="1" source="8" target="5" edge="1">
                    <mxGeometry relative="1" as="geometry"/>
                </mxCell>
                <mxCell id="66" value="Power Off" style="edgeLabel;html=1;align=center;verticalAlign=middle;resizable=0;points=[];fontColor=#05F03C;" parent="30" vertex="1" connectable="0">
                    <mxGeometry x="-0.5625" y="1" relative="1" as="geometry">
                        <mxPoint x="1" y="-14.48" as="offset"/>
                    </mxGeometry>
                </mxCell>
                <mxCell id="41" style="edgeStyle=orthogonalEdgeStyle;orthogonalLoop=1;jettySize=auto;html=1;exitX=0;exitY=1;exitDx=0;exitDy=0;entryX=1;entryY=0.5;entryDx=0;entryDy=0;fontSize=12;fontColor=#000000;" parent="1" source="8" target="9" edge="1">
                    <mxGeometry relative="1" as="geometry">
                        <Array as="points">
                            <mxPoint x="518" y="724"/>
                        </Array>
                    </mxGeometry>
                </mxCell>
                <mxCell id="45" value="Airplane Mode" style="edgeLabel;html=1;align=center;verticalAlign=middle;resizable=0;points=[];fontColor=#05F03C;" parent="41" vertex="1" connectable="0">
                    <mxGeometry x="-0.3003" relative="1" as="geometry">
                        <mxPoint y="2.75" as="offset"/>
                    </mxGeometry>
                </mxCell>
                <mxCell id="42" style="edgeStyle=orthogonalEdgeStyle;orthogonalLoop=1;jettySize=auto;html=1;exitX=1;exitY=1;exitDx=0;exitDy=0;entryX=0;entryY=0.5;entryDx=0;entryDy=0;fontSize=12;fontColor=#000000;" parent="1" source="8" target="10" edge="1">
                    <mxGeometry relative="1" as="geometry">
                        <Array as="points">
                            <mxPoint x="602" y="724"/>
                        </Array>
                    </mxGeometry>
                </mxCell>
                <mxCell id="49" value="Begin OTA" style="edgeLabel;html=1;align=center;verticalAlign=middle;resizable=0;points=[];fontColor=#05F03C;" parent="42" vertex="1" connectable="0">
                    <mxGeometry x="-0.3675" y="-2" relative="1" as="geometry">
                        <mxPoint as="offset"/>
                    </mxGeometry>
                </mxCell>
                <mxCell id="43" style="edgeStyle=orthogonalEdgeStyle;orthogonalLoop=1;jettySize=auto;html=1;exitX=1;exitY=0.5;exitDx=0;exitDy=0;entryX=0.5;entryY=1;entryDx=0;entryDy=0;fontSize=12;fontColor=#000000;" parent="1" source="8" target="7" edge="1">
                    <mxGeometry relative="1" as="geometry"/>
                </mxCell>
                <mxCell id="56" value="Data Inactive" style="edgeLabel;html=1;align=center;verticalAlign=middle;resizable=0;points=[];fontColor=#FF9933;" parent="43" vertex="1" connectable="0">
                    <mxGeometry x="-0.4333" y="-2" relative="1" as="geometry">
                        <mxPoint as="offset"/>
                    </mxGeometry>
                </mxCell>
                <mxCell id="44" style="edgeStyle=orthogonalEdgeStyle;orthogonalLoop=1;jettySize=auto;html=1;exitX=0;exitY=0.5;exitDx=0;exitDy=0;fontSize=12;fontColor=#000000;" parent="1" source="8" target="6" edge="1">
                    <mxGeometry relative="1" as="geometry"/>
                </mxCell>
                <mxCell id="55" value="Detached" style="edgeLabel;html=1;align=center;verticalAlign=middle;resizable=0;points=[];fontColor=#FF9933;" parent="44" vertex="1" connectable="0">
                    <mxGeometry x="-0.1605" y="-2" relative="1" as="geometry">
                        <mxPoint x="50" y="1.98" as="offset"/>
                    </mxGeometry>
                </mxCell>
                <mxCell id="8" value="&lt;font style=&quot;font-size: 12px&quot;&gt;State::Connected&lt;/font&gt;" style="ellipse;whiteSpace=wrap;html=1;strokeColor=#006EAF;fillColor=#1ba1e2;fontSize=14;fontColor=#000000;fontStyle=1;rounded=1;" parent="1" vertex="1">
                    <mxGeometry x="500" y="490" width="120" height="80" as="geometry"/>
                </mxCell>
                <mxCell id="46" style="edgeStyle=orthogonalEdgeStyle;rounded=1;orthogonalLoop=1;jettySize=auto;html=1;exitX=0;exitY=0.5;exitDx=0;exitDy=0;entryX=0;entryY=0;entryDx=0;entryDy=0;" parent="1" source="9" target="5" edge="1">
                    <mxGeometry relative="1" as="geometry">
                        <Array as="points">
                            <mxPoint x="110" y="724"/>
                            <mxPoint x="110" y="122"/>
                        </Array>
                    </mxGeometry>
                </mxCell>
                <mxCell id="47" value="Power Off" style="edgeLabel;html=1;align=center;verticalAlign=middle;resizable=0;points=[];fontColor=#05F03C;" parent="46" vertex="1" connectable="0">
                    <mxGeometry x="-0.3955" y="1" relative="1" as="geometry">
                        <mxPoint y="24.07" as="offset"/>
                    </mxGeometry>
                </mxCell>
                <mxCell id="9" value="&lt;font style=&quot;font-size: 12px&quot;&gt;State::Rfoff&lt;/font&gt;" style="ellipse;whiteSpace=wrap;html=1;strokeColor=#006EAF;fillColor=#1ba1e2;fontSize=14;fontColor=#000000;fontStyle=1;rounded=1;" parent="1" vertex="1">
                    <mxGeometry x="195" y="684" width="120" height="80" as="geometry"/>
                </mxCell>
                <mxCell id="35" style="edgeStyle=orthogonalEdgeStyle;orthogonalLoop=1;jettySize=auto;html=1;exitX=1;exitY=0.5;exitDx=0;exitDy=0;entryX=1;entryY=0;entryDx=0;entryDy=0;fontSize=12;fontColor=#000000;" parent="1" source="10" target="5" edge="1">
                    <mxGeometry relative="1" as="geometry">
                        <Array as="points">
                            <mxPoint x="1110" y="724"/>
                            <mxPoint x="1110" y="122"/>
                        </Array>
                    </mxGeometry>
                </mxCell>
                <mxCell id="48" value="OTA Done" style="edgeLabel;html=1;align=center;verticalAlign=middle;resizable=0;points=[];fontColor=#FF9933;" parent="35" vertex="1" connectable="0">
                    <mxGeometry x="-0.4834" y="-2" relative="1" as="geometry">
                        <mxPoint y="-26.97" as="offset"/>
                    </mxGeometry>
                </mxCell>
                <mxCell id="10" value="&lt;font style=&quot;font-size: 12px&quot;&gt;State::Ota&lt;/font&gt;" style="ellipse;whiteSpace=wrap;html=1;strokeColor=#006EAF;fillColor=#1ba1e2;fontSize=14;fontColor=#000000;fontStyle=1;rounded=1;" parent="1" vertex="1">
                    <mxGeometry x="855" y="684" width="120" height="80" as="geometry"/>
                </mxCell>
                <mxCell id="13" style="edgeStyle=orthogonalEdgeStyle;orthogonalLoop=1;jettySize=auto;html=1;exitX=0;exitY=0.5;exitDx=0;exitDy=0;entryX=0.5;entryY=0;entryDx=0;entryDy=0;fontSize=12;fontColor=#000000;" parent="1" source="11" target="5" edge="1">
                    <mxGeometry relative="1" as="geometry"/>
                </mxCell>
                <mxCell id="54" value="Power Off" style="edgeLabel;html=1;align=center;verticalAlign=middle;resizable=0;points=[];fontColor=#05F03C;" parent="13" vertex="1" connectable="0">
                    <mxGeometry x="-0.0573" y="2" relative="1" as="geometry">
                        <mxPoint as="offset"/>
                    </mxGeometry>
                </mxCell>
                <mxCell id="11" value="State::Unknown" style="ellipse;whiteSpace=wrap;html=1;strokeColor=#006EAF;fillColor=#1ba1e2;fontSize=12;fontColor=#000000;fontStyle=1;rounded=1;" parent="1" vertex="1">
                    <mxGeometry x="790" width="120" height="80" as="geometry"/>
                </mxCell>
                <mxCell id="28" style="edgeStyle=orthogonalEdgeStyle;orthogonalLoop=1;jettySize=auto;html=1;exitX=1;exitY=0.5;exitDx=0;exitDy=0;entryX=1;entryY=0;entryDx=0;entryDy=0;fontSize=12;fontColor=#000000;" parent="1" source="7" target="7" edge="1">
                    <mxGeometry relative="1" as="geometry">
                        <Array as="points">
                            <mxPoint x="1010" y="354"/>
                            <mxPoint x="1010" y="290"/>
                            <mxPoint x="957" y="290"/>
                        </Array>
                    </mxGeometry>
                </mxCell>
                <mxCell id="53" value="Attached / Data Inactive" style="edgeLabel;html=1;align=center;verticalAlign=middle;resizable=0;points=[];fontColor=#FF9933;" parent="28" vertex="1" connectable="0">
                    <mxGeometry x="-0.0007" relative="1" as="geometry">
                        <mxPoint x="30" y="17.73" as="offset"/>
                    </mxGeometry>
                </mxCell>
                <mxCell id="29" style="edgeStyle=orthogonalEdgeStyle;orthogonalLoop=1;jettySize=auto;html=1;exitX=0;exitY=0.5;exitDx=0;exitDy=0;entryX=0;entryY=0;entryDx=0;entryDy=0;fontSize=12;fontColor=#000000;" parent="1" source="6" target="6" edge="1">
                    <mxGeometry relative="1" as="geometry">
                        <Array as="points">
                            <mxPoint x="160" y="354"/>
                            <mxPoint x="160" y="290"/>
                            <mxPoint x="213" y="290"/>
                        </Array>
                    </mxGeometry>
                </mxCell>
                <mxCell id="52" value="Detached" style="edgeLabel;html=1;align=center;verticalAlign=middle;resizable=0;points=[];fontColor=#FF9933;" parent="29" vertex="1" connectable="0">
                    <mxGeometry x="-0.13" y="-2" relative="1" as="geometry">
                        <mxPoint y="8.5" as="offset"/>
                    </mxGeometry>
                </mxCell>
                <mxCell id="67" value="Green events are manually emitted&lt;br&gt;&lt;font color=&quot;#ff9933&quot;&gt;Orange events are emitted through network events&lt;/font&gt;" style="text;html=1;align=left;verticalAlign=middle;resizable=0;points=[];autosize=1;fontColor=#05F03C;" parent="1" vertex="1">
                    <mxGeometry x="120" y="40" width="290" height="30" as="geometry"/>
                </mxCell>
            </root>
        </mxGraphModel>
    </diagram>
</mxfile>